<?xml version="1.0" encoding="UTF-8"?>
<svg id="Layer_2" data-name="Layer 2" xmlns="http://www.w3.org/2000/svg" viewBox="0 0 1927.98 329.17">
  <defs>
    <style>
      .cls-1 {
        font-family: GlacialIndifference-Regular, 'Glacial Indifference';
        font-size: 301.44px;
      }

      .cls-2, .cls-3, .cls-4 {
        fill: #fff;
      }

      .cls-5 {
        letter-spacing: 1.1em;
      }

      .cls-5, .cls-6, .cls-7 {
        fill: #06d889;
      }

      .cls-3 {
        letter-spacing: .06em;
      }

      .cls-4 {
        letter-spacing: .05em;
      }

      .cls-7 {
        letter-spacing: .52em;
      }
    </style>
  </defs>
  <g id="Layer_1-2" data-name="Layer 1">
    <path class="cls-2" d="m364.94,253.48c2.77,0,4.58-2.9,3.38-5.39-2.54-5.29-5.01-10.41-7.4-15.37-31.08-64.53-49.4-102.57-61.53-127.73-3.9-8.12-7.17-14.89-10.01-20.78-3.97-8.24-7.1-14.75-10-20.78-3.35-6.93-6.38-13.23-10.01-20.78-1.98-4.11-4.14-8.59-6.62-13.75-1.37-2.84-5.41-2.83-6.77,0-2.46,5.11-4.6,9.55-6.62,13.74-3.39,7.01-6.42,13.31-10.01,20.79-2.85,5.87-6.02,12.49-10,20.76-2.87,5.94-6.15,12.76-10.01,20.76-12.53,25.99-31.14,64.66-61.55,127.75-2.38,4.97-4.85,10.09-7.4,15.37-1.2,2.49.61,5.39,3.38,5.39h51.7c1.44,0,2.76-.83,3.39-2.13,3.13-6.49,6.12-12.68,8.98-18.63,12.83-26.64,23.11-47.98,31.51-65.41,3.68-7.64,6.99-14.53,10.01-20.78,3.45-7.17,6.5-13.49,9.22-19.15.5-1.03.49-2.23,0-3.26-2.13-4.42-4.06-8.43-5.84-12.12-1.37-2.83-5.39-2.83-6.76,0-2.01,4.17-4.21,8.73-6.64,13.75-2.95,6.16-6.27,13.03-10,20.76-9.99,20.77-23,47.78-40.49,84.07-.63,1.3-1.95,2.14-3.39,2.14h-11.66c-2.77,0-4.58-2.9-3.38-5.39,22.39-46.49,37.77-78.41,48.91-101.56,3.79-7.88,7.09-14.72,10.01-20.78,3.94-8.18,7.19-14.92,10.01-20.78,2.47-5.13,4.62-9.6,6.63-13.76,1.37-2.83,5.4-2.83,6.76,0,2.07,4.3,4.2,8.72,6.62,13.75,2.82,5.84,6.03,12.52,10.01,20.76,2.88,6,6.18,12.82,10.01,20.76,11.28,23.45,27.27,56.64,51.52,106.99,2.87,5.96,5.87,12.17,8.98,18.63.63,1.3,1.94,2.13,3.39,2.13h11.66Z"/>
    <path class="cls-2" d="m238.26,253.42c-2.83,0-4.69-2.96-3.46-5.52,2.52-5.24,4.97-10.32,7.34-15.25,31.08-64.53,49.4-102.57,61.53-127.73,3.9-8.12,7.17-14.89,10.01-20.78,3.97-8.24,7.1-14.75,10-20.78,3.35-6.93,6.38-13.23,10.01-20.78,1.96-4.07,4.09-8.5,6.54-13.58,1.4-2.9,5.53-2.9,6.93,0,2.43,5.04,4.55,9.44,6.54,13.58,3.39,7.01,6.42,13.31,10.01,20.79,2.85,5.87,6.02,12.49,10,20.76,2.87,5.94,6.15,12.76,10.01,20.76,12.53,25.99,31.14,64.66,61.55,127.75,2.37,4.93,4.81,10.01,7.33,15.24,1.23,2.55-.63,5.52-3.46,5.52h-51.51c-1.47,0-2.82-.85-3.46-2.18-3.12-6.47-6.1-12.65-8.96-18.58-12.83-26.64-23.11-47.98-31.51-65.41-3.68-7.64-6.99-14.53-10.01-20.78-3.44-7.15-6.48-13.47-9.2-19.11-.51-1.05-.5-2.28,0-3.34,2.09-4.34,3.99-8.29,5.75-11.92,1.4-2.9,5.52-2.9,6.91,0,1.99,4.12,4.16,8.63,6.56,13.59,2.95,6.16,6.27,13.03,10,20.76,9.98,20.76,22.99,47.75,40.47,84.02.64,1.33,1.99,2.18,3.47,2.18h11.46c2.83,0,4.69-2.97,3.46-5.52-22.36-46.43-37.72-78.31-48.85-101.44-3.79-7.88-7.09-14.72-10.01-20.78-3.94-8.18-7.19-14.92-10.01-20.78-2.44-5.06-4.57-9.48-6.55-13.59-1.4-2.9-5.53-2.9-6.92,0-2.04,4.25-4.15,8.62-6.54,13.59-2.82,5.84-6.03,12.52-10.01,20.76-2.88,6-6.18,12.82-10.01,20.76-11.28,23.45-27.27,56.64-51.52,106.99-2.87,5.95-5.85,12.14-8.96,18.58-.64,1.33-1.99,2.18-3.46,2.18h-11.47Z"/>
    <path class="cls-6" d="m88.06,26.78c-2.77,0-4.58,2.9-3.38,5.39,2.54,5.29,5.01,10.41,7.4,15.37,31.08,64.53,49.4,102.57,61.53,127.73,3.9,8.12,7.17,14.89,10.01,20.78,3.97,8.24,7.1,14.75,10,20.78,3.35,6.93,6.38,13.23,10.01,20.78,1.98,4.11,4.14,8.59,6.62,13.75,1.37,2.84,5.41,2.83,6.77,0,2.46-5.11,4.6-9.55,6.62-13.74,3.39-7.01,6.42-13.31,10.01-20.79,2.85-5.87,6.02-12.49,10-20.76,2.87-5.94,6.15-12.76,10.01-20.76,12.53-25.99,31.14-64.66,61.55-127.75,2.38-4.97,4.85-10.09,7.4-15.37,1.2-2.49-.61-5.39-3.38-5.39h-51.7c-1.44,0-2.76.83-3.39,2.13-3.13,6.49-6.12,12.68-8.98,18.63-12.83,26.64-23.11,47.98-31.51,65.41-3.68,7.64-6.99,14.53-10.01,20.78-3.45,7.17-6.5,13.49-9.22,19.15-.5,1.03-.49,2.23,0,3.26,2.13,4.42,4.06,8.43,5.84,12.12,1.37,2.83,5.39,2.83,6.76,0,2.01-4.17,4.21-8.73,6.64-13.75,2.95-6.16,6.27-13.03,10-20.76,9.99-20.77,23-47.78,40.49-84.07.63-1.3,1.95-2.14,3.39-2.14h11.66c2.77,0,4.58,2.9,3.38,5.39-22.39,46.49-37.77,78.41-48.91,101.56-3.79,7.88-7.09,14.72-10.01,20.78-3.94,8.18-7.19,14.92-10.01,20.78-2.47,5.13-4.62,9.6-6.63,13.76-1.37,2.83-5.4,2.83-6.76,0-2.07-4.3-4.2-8.72-6.62-13.75-2.82-5.84-6.03-12.52-10.01-20.76-2.88-6-6.18-12.82-10.01-20.76-11.28-23.45-27.27-56.64-51.52-106.99-2.87-5.96-5.87-12.17-8.98-18.63-.63-1.3-1.94-2.13-3.39-2.13h-11.66Z"/>
    <path class="cls-6" d="m214.74,26.83c2.83,0,4.69,2.96,3.46,5.52-2.52,5.24-4.97,10.32-7.34,15.25-31.08,64.53-49.4,102.57-61.53,127.73-3.9,8.12-7.17,14.89-10.01,20.78-3.97,8.24-7.1,14.75-10,20.78-3.35,6.93-6.38,13.23-10.01,20.78-1.96,4.07-4.09,8.5-6.54,13.58-1.4,2.9-5.53,2.9-6.93,0-2.43-5.04-4.55-9.44-6.54-13.58-3.39-7.01-6.42-13.31-10.01-20.79-2.85-5.87-6.02-12.49-10-20.76-2.87-5.94-6.15-12.76-10.01-20.76-12.53-25.99-31.14-64.66-61.55-127.75-2.37-4.93-4.81-10.01-7.33-15.24-1.23-2.55.63-5.52,3.46-5.52h51.51c1.47,0,2.82.85,3.46,2.18,3.12,6.47,6.1,12.65,8.96,18.58,12.83,26.64,23.11,47.98,31.51,65.41,3.68,7.64,6.99,14.53,10.01,20.78,3.44,7.15,6.48,13.47,9.2,19.11.51,1.05.5,2.28,0,3.34-2.09,4.34-3.99,8.29-5.75,11.92-1.4,2.9-5.52,2.9-6.91,0-1.99-4.12-4.16-8.63-6.56-13.59-2.95-6.16-6.27-13.03-10-20.76-9.98-20.76-22.99-47.75-40.47-84.02-.64-1.33-1.99-2.18-3.47-2.18h-11.46c-2.83,0-4.69,2.97-3.46,5.52,22.36,46.43,37.72,78.31,48.85,101.44,3.79,7.88,7.09,14.72,10.01,20.78,3.94,8.18,7.19,14.92,10.01,20.78,2.44,5.06,4.57,9.48,6.55,13.59,1.4,2.9,5.53,2.9,6.92,0,2.04-4.25,4.15-8.62,6.54-13.59,2.82-5.84,6.03-12.52,10.01-20.76,2.88-6,6.18-12.82,10.01-20.76,11.28-23.45,27.27-56.64,51.52-106.99,2.87-5.95,5.85-12.14,8.96-18.58.64-1.33,1.99-2.18,3.46-2.18h11.47Z"/>
    <text class="cls-1" transform="translate(510.88 253.21)"><tspan class="cls-7" x="0" y="0"> </tspan><tspan class="cls-4" x="237.98" y="0">eb</tspan></text>
    <text class="cls-1" transform="translate(923.4 253.21)"><tspan class="cls-5" x="0" y="0"> </tspan><tspan class="cls-3" x="412.27" y="0">avic</tspan></text>
    <g>
      <path class="cls-6" d="m714.94,63.86v177.83c-8.06-7.8-16.84-16.27-26.37-25.46v-126.94c8.51-8.21,17.29-16.69,26.37-25.43Z"/>
      <path class="cls-6" d="m519.07,52.52v36.65c-8.51-8.21-17.29-16.69-26.37-25.43V27.05c9.04,8.74,17.82,17.21,26.37,25.46Z"/>
      <path class="cls-6" d="m688.57,216.23v36.65c-22.79-22-50.66-48.93-84.68-81.82,6.1-5.91,12.43-12.02,18.95-18.31,25.12,24.26,46.9,45.28,65.73,63.47Z"/>
      <path class="cls-6" d="m714.94,241.69v11.94h-25.58c-.26-.26-.53-.49-.79-.75v-36.65c9.53,9.19,18.31,17.67,26.37,25.46Z"/>
      <path class="cls-6" d="m519.07,216.34v36.61c-.23.26-.45.45-.68.68h-25.69v-11.79c8.1-7.84,16.88-16.31,26.37-25.5Z"/>
      <path class="cls-6" d="m603.9,171.06c-33.9,32.73-61.85,59.74-84.83,81.89v-36.61c18.95-18.31,40.76-39.36,65.84-63.58,6.55,6.29,12.88,12.43,18.99,18.31Z"/>
      <path class="cls-6" d="m519.07,57.17v127.17c-9.49,9.19-18.27,17.67-26.37,25.5V31.74c9.08,8.74,17.85,17.21,26.37,25.43Z"/>
      <path class="cls-6" d="m622.84,152.75c-6.52,6.29-12.85,12.39-18.95,18.31-6.1-5.88-12.43-12.02-18.99-18.31,6.14-5.91,12.47-12.05,18.99-18.34,6.52,6.33,12.84,12.43,18.95,18.34Z"/>
      <path class="cls-6" d="m714.94,27.2v36.65c-9.08,8.74-17.85,17.21-26.37,25.43v-36.65c8.55-8.21,17.33-16.72,26.37-25.43Z"/>
    </g>
    <g>
      <path class="cls-6" d="m1143.49,230.07c0,7.3,0,14.84-.03,22.51-6.08-.03-11.69-.03-16.9-.03h-6.42c8.04-7.67,15.78-15.21,23.35-22.48Z"/>
      <path class="cls-6" d="m1318.73,252.71c-7.98,0-15.68,0-23.19-.03l.03-22.37c7.54,7.27,15.24,14.7,23.15,22.41Z"/>
      <path class="cls-6" d="m1119.83,219.97l.14-159.56c7.23,7,15.09,14.61,23.64,22.87l-.1,113.9c-7.64,7.36-15.53,14.96-23.68,22.79Z"/>
      <path class="cls-6" d="m1319.24,220.23l-.03,32.48v.44c-.14-.14-.3-.27-.44-.44h-.03c-7.91-7.71-15.62-15.14-23.15-22.41l.03-32.89c7.64,7.37,15.48,14.97,23.62,22.81Z"/>
      <path class="cls-6" d="m1143.61,83.28l.03-32.89c20.43,19.76,45.42,43.94,75.91,73.48-5.48,5.3-11.16,10.77-17.01,16.41-22.52-21.79-42.04-40.66-58.93-57Z"/>
      <path class="cls-6" d="m1143.65,50.4l-.03,32.89c-8.55-8.25-16.43-15.89-23.66-22.88l.03-10.71,22.95.03c.24.24.47.44.71.68Z"/>
      <path class="cls-6" d="m1142.94,49.72l-22.95-.03v-22.17c6.89,6.66,14.53,14.06,22.95,22.21Z"/>
      <path class="cls-6" d="m1319.4,49.86l-.03,10.58c-7.27,7.03-15.14,14.63-23.66,22.88l.03-32.85c.2-.24.41-.41.61-.61h23.05Z"/>
      <path class="cls-6" d="m1319.4,27.58v22.27h-23.05c8.42-8.15,16.09-15.55,23.05-22.27Z"/>
      <path class="cls-6" d="m1219.55,123.87c30.44-29.34,55.54-53.56,76.18-73.41l-.03,32.85c-17.01,16.41-36.6,35.29-59.13,57-5.88-5.65-11.55-11.16-17.02-16.44Z"/>
      <path class="cls-6" d="m1296.6,224.41l.1-114.1c8.52-8.24,16.41-15.84,23.68-22.86l-.14,159.8c-8.14-7.85-16.01-15.46-23.64-22.83Z"/>
      <path class="cls-6" d="m1202.54,140.28c5.85-5.64,11.53-11.11,17.01-16.41,5.47,5.28,11.14,10.79,17.02,16.44-5.51,5.3-11.2,10.81-17.05,16.44-5.84-5.68-11.52-11.16-16.99-16.47Z"/>
      <path class="cls-6" d="m1143.52,197.18l-.03,32.89c-7.57,7.27-15.31,14.8-23.35,22.48-.1.1-.24.2-.34.3v-.3l.03-32.58c8.15-7.81,16.05-15.41,23.69-22.78Z"/>
    </g>
  </g>
</svg>