<?xml version="1.0" encoding="UTF-8"?>
<svg id="Layer_2" data-name="Layer 2" xmlns="http://www.w3.org/2000/svg" viewBox="0 0 1695.23 280.19">
  <defs>
    <style>
      .cls-1, .cls-2, .cls-3, .cls-4, .cls-5 {
        fill: #fff;
      }

      .cls-2 {
        letter-spacing: .12em;
      }

      .cls-2, .cls-3, .cls-4, .cls-5 {
        font-family: TwCenMT-Regular, 'Tw Cen MT';
      }

      .cls-3 {
        letter-spacing: .1em;
      }

      .cls-6 {
        font-size: 218px;
      }

      .cls-7 {
        letter-spacing: .12em;
      }

      .cls-7, .cls-8 {
        font-family: CenturyGothic, 'Century Gothic';
      }

      .cls-7, .cls-8, .cls-9 {
        fill: #06d889;
      }

      .cls-8 {
        letter-spacing: .12em;
      }

      .cls-5 {
        letter-spacing: .12em;
      }
    </style>
  </defs>
  <g id="Layer_1-2" data-name="Layer 1">
    <path class="cls-1" d="m428.57,266.24c3.25,0,5.38-3.4,3.97-6.33-2.99-6.21-5.88-12.22-8.69-18.05-36.49-75.78-58.01-120.45-72.26-150.01-4.58-9.53-8.42-17.49-11.76-24.4-4.66-9.68-8.34-17.32-11.74-24.4-3.93-8.14-7.49-15.54-11.76-24.4-2.33-4.83-4.86-10.09-7.78-16.14-1.6-3.33-6.35-3.33-7.95,0-2.89,6-5.41,11.22-7.77,16.14-3.98,8.23-7.53,15.63-11.76,24.42-3.34,6.9-7.07,14.67-11.74,24.38-3.37,6.97-7.22,14.98-11.76,24.38-14.71,30.52-36.57,75.93-72.28,150.03-2.8,5.84-5.69,11.85-8.68,18.05-1.41,2.93.72,6.33,3.97,6.33h60.72c1.69,0,3.24-.98,3.98-2.5,3.68-7.62,7.19-14.89,10.55-21.88,15.07-31.28,27.13-56.35,37-76.82,4.32-8.97,8.21-17.06,11.76-24.4,4.05-8.42,7.63-15.85,10.82-22.49.58-1.21.58-2.62,0-3.83-2.5-5.19-4.77-9.9-6.86-14.23-1.6-3.32-6.33-3.32-7.94,0-2.36,4.89-4.94,10.25-7.79,16.15-3.47,7.23-7.36,15.3-11.74,24.38-11.73,24.39-27.02,56.11-47.55,98.73-.74,1.53-2.29,2.51-3.98,2.51h-13.69c-3.25,0-5.38-3.41-3.97-6.33,26.29-54.6,44.36-92.09,57.44-119.27,4.46-9.25,8.32-17.28,11.76-24.4,4.63-9.61,8.45-17.52,11.76-24.4,2.91-6.03,5.43-11.27,7.78-16.16,1.6-3.33,6.34-3.32,7.94,0,2.43,5.05,4.93,10.24,7.78,16.15,3.31,6.86,7.09,14.7,11.76,24.38,3.39,7.05,7.26,15.06,11.76,24.38,13.24,27.54,32.02,66.51,60.5,125.64,3.37,7,6.89,14.29,10.55,21.88.74,1.52,2.28,2.5,3.98,2.5h13.7Z"/>
    <path class="cls-1" d="m279.81,266.17c-3.32,0-5.5-3.48-4.06-6.48,2.96-6.16,5.83-12.12,8.62-17.91,36.49-75.78,58.01-120.45,72.26-150.01,4.58-9.53,8.42-17.49,11.76-24.4,4.66-9.68,8.34-17.32,11.74-24.4,3.93-8.14,7.49-15.54,11.76-24.4,2.3-4.78,4.81-9.98,7.68-15.95,1.64-3.41,6.5-3.41,8.14,0,2.85,5.92,5.34,11.08,7.68,15.95,3.98,8.23,7.53,15.63,11.76,24.42,3.34,6.9,7.07,14.67,11.74,24.38,3.37,6.97,7.22,14.98,11.76,24.38,14.71,30.52,36.57,75.93,72.28,150.03,2.78,5.79,5.65,11.76,8.61,17.9,1.45,3-.73,6.48-4.06,6.48h-60.49c-1.73,0-3.32-1-4.07-2.56-3.67-7.6-7.17-14.85-10.52-21.82-15.07-31.28-27.13-56.35-37-76.82-4.32-8.97-8.21-17.06-11.76-24.4-4.04-8.4-7.62-15.81-10.8-22.44-.6-1.24-.59-2.68,0-3.92,2.45-5.09,4.69-9.73,6.75-14,1.64-3.4,6.48-3.4,8.12,0,2.33,4.84,4.88,10.13,7.7,15.96,3.47,7.23,7.36,15.3,11.74,24.38,11.72,24.38,27,56.08,47.53,98.68.75,1.56,2.34,2.57,4.08,2.57h13.46c3.33,0,5.51-3.48,4.06-6.48-26.25-54.52-44.3-91.97-57.37-119.12-4.46-9.25-8.32-17.28-11.76-24.4-4.63-9.61-8.45-17.52-11.76-24.4-2.87-5.95-5.36-11.13-7.69-15.96-1.64-3.41-6.49-3.4-8.13,0-2.4,4.99-4.87,10.12-7.68,15.96-3.31,6.86-7.09,14.7-11.76,24.38-3.39,7.05-7.26,15.06-11.76,24.38-13.24,27.54-32.02,66.51-60.5,125.64-3.37,6.99-6.87,14.26-10.52,21.82-.75,1.56-2.34,2.56-4.07,2.56h-13.47Z"/>
    <path class="cls-9" d="m103.41,0c-3.25,0-5.38,3.4-3.97,6.33,2.99,6.21,5.88,12.22,8.69,18.05,36.49,75.78,58.01,120.45,72.26,150.01,4.58,9.53,8.42,17.49,11.76,24.4,4.66,9.68,8.34,17.32,11.74,24.4,3.93,8.14,7.49,15.54,11.76,24.4,2.33,4.83,4.86,10.09,7.78,16.14,1.6,3.33,6.35,3.33,7.95,0,2.89-6,5.41-11.22,7.77-16.14,3.98-8.23,7.53-15.63,11.76-24.42,3.34-6.9,7.07-14.67,11.74-24.38,3.37-6.97,7.22-14.98,11.76-24.38,14.71-30.52,36.57-75.93,72.28-150.03,2.8-5.84,5.69-11.85,8.68-18.05C356.78,3.4,354.65,0,351.4,0h-60.72c-1.69,0-3.24.98-3.98,2.5-3.68,7.62-7.19,14.89-10.55,21.88-15.07,31.28-27.13,56.35-37,76.82-4.32,8.97-8.21,17.06-11.76,24.4-4.05,8.42-7.63,15.85-10.82,22.49-.58,1.21-.58,2.62,0,3.83,2.5,5.19,4.77,9.9,6.86,14.23,1.6,3.32,6.33,3.32,7.94,0,2.36-4.89,4.94-10.25,7.79-16.15,3.47-7.23,7.36-15.3,11.74-24.38,11.73-24.39,27.02-56.11,47.55-98.73.74-1.53,2.29-2.51,3.98-2.51h13.69c3.25,0,5.38,3.41,3.97,6.33-26.29,54.6-44.36,92.09-57.44,119.27-4.46,9.25-8.32,17.28-11.76,24.4-4.63,9.61-8.45,17.52-11.76,24.4-2.91,6.03-5.43,11.27-7.78,16.16-1.6,3.33-6.34,3.32-7.94,0-2.43-5.05-4.93-10.24-7.78-16.15-3.31-6.86-7.09-14.7-11.76-24.38-3.39-7.05-7.26-15.06-11.76-24.38-13.24-27.54-32.02-66.51-60.5-125.64-3.37-7-6.89-14.29-10.55-21.88C120.35.98,118.8,0,117.11,0h-13.7Z"/>
    <path class="cls-9" d="m252.18.07c3.32,0,5.5,3.48,4.06,6.48-2.96,6.16-5.83,12.12-8.62,17.91-36.49,75.78-58.01,120.45-72.26,150.01-4.58,9.53-8.42,17.49-11.76,24.4-4.66,9.68-8.34,17.32-11.74,24.4-3.93,8.14-7.49,15.54-11.76,24.4-2.3,4.78-4.81,9.98-7.68,15.95-1.64,3.41-6.5,3.41-8.14,0-2.85-5.92-5.34-11.08-7.68-15.95-3.98-8.23-7.53-15.63-11.76-24.42-3.34-6.9-7.07-14.67-11.74-24.38-3.37-6.97-7.22-14.98-11.76-24.38-14.71-30.52-36.57-75.93-72.28-150.03C6.29,18.66,3.42,12.69.45,6.55-.99,3.55,1.19.07,4.52.07h60.49c1.73,0,3.32,1,4.07,2.56,3.67,7.6,7.17,14.85,10.52,21.82,15.07,31.28,27.13,56.35,37,76.82,4.32,8.97,8.21,17.06,11.76,24.4,4.04,8.4,7.62,15.81,10.8,22.44.6,1.24.59,2.68,0,3.92-2.45,5.09-4.69,9.73-6.75,14-1.64,3.4-6.48,3.4-8.12,0-2.33-4.84-4.88-10.13-7.7-15.96-3.47-7.23-7.36-15.3-11.74-24.38-11.72-24.38-27-56.08-47.53-98.68-.75-1.56-2.34-2.57-4.08-2.57h-13.46c-3.33,0-5.51,3.48-4.06,6.48,26.25,54.52,44.3,91.97,57.37,119.12,4.46,9.25,8.32,17.28,11.76,24.4,4.63,9.61,8.45,17.52,11.76,24.4,2.87,5.95,5.36,11.13,7.69,15.96,1.64,3.41,6.49,3.4,8.13,0,2.4-4.99,4.87-10.12,7.68-15.96,3.31-6.86,7.09-14.7,11.76-24.38,3.39-7.05,7.26-15.06,11.76-24.38,13.24-27.54,32.02-66.51,60.5-125.64,3.37-6.99,6.87-14.26,10.52-21.82.75-1.56,2.34-2.56,4.07-2.56h13.47Z"/>
    <text class="cls-6" transform="translate(531.52 213.34)"><tspan class="cls-7" x="0" y="0">W</tspan><tspan class="cls-3" x="235.3" y="0">e</tspan><tspan class="cls-2" x="365.88" y="0">b</tspan><tspan class="cls-8" x="512.1" y="0">M</tspan><tspan class="cls-5" x="738.46" y="0">avi</tspan><tspan class="cls-4" x="1079.83" y="0">c</tspan></text>
  </g>
</svg>